# xmcd
#
# Track frame offsets: 
#        150
#        22950
#        46088
#        69338
#        90751
#        118464
#        134739
#        153077
#        175877
#        201227
#        222640
#        247765
#
# Disc length: 3612 seconds
#
# Revision: 0
# Processed by: cddbd v1.5.2PL0 Copyright (c) Steve Scherf et al.
# Submitted via: ExactAudioCopy v1.3
#
DISCID=a00e1a0c
DTITLE=K J Yesudas - Avani Pookkal
DYEAR=1986
DGENRE=Blues
TTITLE0=Moovanthi Muthassi
TTITLE1=Onappoove
TTITLE2=Kinavilinnale
TTITLE3=Vaanavazhi
TTITLE4=K S Chitra - Uthradarathriyil
TTITLE5=Thrisandhya
TTITLE6=K S Chitra - Atha Kalathinu
TTITLE7=Thulasi
TTITLE8=Kulichu Kuriyittu
TTITLE9=K S Chitra - Vanavazhi
TTITLE10=Nithya Tharuni
TTITLE11=Athappoo
EXTD=
EXTT0=
EXTT1=
EXTT2=
EXTT3=
EXTT4=
EXTT5=
EXTT6=
EXTT7=
EXTT8=
EXTT9=
EXTT10=
EXTT11=
PLAYORDER=
